<svg width="428" height="341" viewBox="0 0 428 341" fill="none" xmlns="http://www.w3.org/2000/svg">
<path d="M197.215 52.1103C197.215 70.6195 182.204 85.6297 163.695 85.6297C145.186 85.6297 130.176 70.6195 130.176 52.1103C130.176 33.601 145.186 18.5908 163.695 18.5908C182.255 18.5908 197.215 33.601 197.215 52.1103Z" fill="#0A1C4F"/>
<path d="M352.185 283.095C332.256 295.722 325.207 278.379 314.304 278.43C268.006 278.683 220.136 243.744 179.365 243.998C151.018 244.15 130.277 252.365 108.32 275.996L64.3031 207.841C96.6055 174.474 126.271 157.232 166.332 156.979C212.63 156.725 260.552 191.665 301.323 191.411C306.951 191.36 312.377 190.853 317.702 189.788L352.185 283.095Z" fill="#0A1C4F"/>
<path d="M197.214 37.7593V133.5H168.512C168.512 133.5 168.512 95.2139 149.344 95.2139C130.226 95.2139 197.214 37.7593 197.214 37.7593Z" fill="#0A1C4F"/>
<path d="M168.513 95.2139C168.513 95.2139 120.642 95.2139 149.344 162.253C178.046 229.292 72.7212 229.292 72.7212 229.292C72.7212 229.292 34.3842 46.9378 130.227 37.7592C236.769 27.5158 168.513 95.2139 168.513 95.2139Z" fill="#0A1C4F"/>
<path d="M69.9828 25.741C85.0944 10.1223 98.989 2.00866 117.752 1.90724C139.456 1.80581 161.87 18.1345 180.987 18.0331C194.273 17.9317 205.531 11.745 215.825 0.690186L236.414 32.5869C221.302 48.2564 205.785 58.7027 187.022 58.8041C165.369 58.9562 142.904 42.5768 123.837 42.6782C110.551 42.7797 100.865 46.5829 90.5711 57.6377L69.9828 25.741Z" fill="#428CAB"/>
<path d="M354.467 152.314C354.467 187.608 325.867 216.208 290.572 216.208C255.278 216.208 226.677 187.608 226.677 152.314C226.677 117.019 255.278 88.4187 290.572 88.4187C325.867 88.4187 354.467 117.019 354.467 152.314Z" fill="#FF3838"/>
<path d="M318.158 212.456C331.546 198.612 343.868 191.462 360.501 191.361C379.721 191.259 399.599 205.762 416.485 205.661C428.25 205.61 438.24 200.083 447.368 190.296L465.573 218.592C452.185 232.436 438.494 241.716 421.861 241.767C402.642 241.868 382.763 227.365 365.877 227.466C354.112 227.517 345.491 230.915 336.414 240.752L318.158 212.456Z" fill="#0A1C4F"/>
<path d="M155.531 191.462C170.744 175.742 184.689 167.628 203.553 167.527C225.358 167.425 247.874 183.855 267.093 183.754C280.43 183.652 291.789 177.415 302.134 166.31L322.823 198.358C307.61 214.079 292.093 224.576 273.229 224.677C251.424 224.829 228.908 208.348 209.689 208.45C196.352 208.551 186.565 212.405 176.22 223.511L155.531 191.462Z" fill="#DB9E26"/>
<path d="M252.996 84.2607C268.564 68.1349 282.915 59.8184 302.235 59.717C324.598 59.5648 347.722 76.4513 367.398 76.3499C381.09 76.2485 392.702 69.859 403.301 58.4492L424.498 91.3601C408.93 107.486 392.956 118.237 373.635 118.338C351.272 118.49 328.199 101.604 308.523 101.705C294.832 101.806 284.842 105.762 274.243 117.121L252.996 84.2607Z" fill="#DB9E26"/>
<path d="M310.349 62.4043C305.075 63.6721 300.46 63.7735 296.505 61.2887C291.941 58.3982 289.405 51.958 285.399 49.4732C282.61 47.6984 279.416 47.4955 275.764 48.459L275.714 39.0269C280.988 37.7592 285.602 37.6577 289.558 40.1425C294.122 43.033 296.657 49.4225 300.663 51.958C303.452 53.7329 306.647 53.9357 310.298 52.9722L310.349 62.4043Z" fill="white"/>
<path d="M100.865 234.616L18.7651 259.211C18.7651 259.211 39.7084 277.466 108.421 275.59L100.865 234.616Z" fill="#0A1C4F"/>
<path d="M300.663 268.541L369.933 338.167C369.933 338.167 309.081 360.327 224.902 253.835L300.663 268.541Z" fill="#0A1C4F"/>
<path d="M314.609 254.343L395.593 306.32C395.593 306.32 339.558 350.033 251.677 273.004L314.609 254.343Z" fill="#0A1C4F"/>
<path d="M80.3275 198.308L0.763184 230.205C0.763184 230.205 23.2785 246.483 91.4837 238.47L80.3275 198.308Z" fill="#0A1C4F"/>
<path d="M20.3882 184.667C32.5586 172.141 44.9826 163.723 60.0436 163.622C77.4372 163.52 95.49 176.654 110.804 176.553C121.454 176.502 130.531 171.482 138.797 162.608L155.328 188.216C143.208 200.742 130.784 209.16 115.673 209.261C98.2791 209.362 80.2769 196.229 64.9118 196.33C54.2626 196.381 45.1855 201.401 36.9197 210.275L20.3882 184.667Z" fill="white"/>
<path d="M250.257 110.224C261.312 98.8141 272.57 91.2076 286.312 91.1062C302.134 91.0047 318.513 102.972 332.459 102.871C342.144 102.82 350.41 98.307 357.915 90.1934L372.925 113.469C361.87 124.879 350.613 132.486 336.87 132.587C321.049 132.689 304.669 120.721 290.724 120.822C281.038 120.873 272.773 125.386 265.268 133.5L250.257 110.224Z" fill="white"/>
<path d="M66.5342 190.498C59.5362 184.717 53.3496 181.168 41.8891 174.981C28.7044 167.831 16.7368 157.283 16.7368 135.072V123.51H66.5342V190.498Z" fill="#FF3838"/>
<path d="M57.5589 140.549L52.285 135.275L46.9097 140.65C45.3884 142.273 43.3093 143.186 41.0273 143.186C36.8691 143.186 33.4208 140.093 33.0151 136.086C33.0151 135.934 33.0151 135.529 33.0151 135.072H25.51C25.51 135.884 25.5607 136.543 25.5607 136.695C26.3721 144.657 33.0658 150.64 41.078 150.64C41.4837 150.64 41.8894 150.59 42.2951 150.59C42.2444 150.995 42.2444 151.401 42.2444 151.807C42.2444 159.819 48.2282 166.462 56.2404 167.324C56.3418 167.324 57.0011 167.375 57.8124 167.375V159.87C57.356 159.87 56.9503 159.87 56.9503 159.87C52.8428 159.464 49.6988 155.965 49.6988 151.807C49.6988 149.575 50.6116 147.496 52.2343 145.924L57.5589 140.549Z" fill="white"/>
</svg>
