<svg width="471" height="411" viewBox="0 0 471 411" fill="none" xmlns="http://www.w3.org/2000/svg">
<path d="M43.8137 300.154L6.10352e-05 392.244C6.10352e-05 392.244 24.5945 377.031 69.1181 306.493L43.8137 300.154Z" fill="#0A1C4F"/>
<path d="M301.979 164.352C316.178 156.187 331.137 152.029 348.582 151.928C385.195 151.725 423.024 179.362 455.276 179.159C477.69 179.007 496.757 168.561 514.1 149.899L548.836 203.754C523.329 230.123 497.213 247.77 465.52 247.922C428.907 248.125 391.077 220.488 358.825 220.691C349.545 220.742 341.28 221.908 333.572 224.545L301.979 164.352Z" fill="#0A1C4F"/>
<path d="M245.285 224.038C260.498 208.368 274.444 200.255 293.257 200.102C315.012 200.001 337.578 216.431 356.746 216.279C370.083 216.178 381.391 209.991 391.736 198.885L412.375 230.934C397.213 246.604 381.645 257.101 362.831 257.202C341.077 257.354 318.561 240.873 299.393 241.026C286.056 241.127 276.32 244.981 265.975 256.086L245.285 224.038Z" fill="#0A1C4F"/>
<path d="M275.407 166.837V160.447C284.789 160.447 291.635 154.058 291.635 145.184C291.635 136.106 284.231 128.703 275.154 128.703V122.313C287.73 122.313 298.024 132.557 298.024 145.184C298.024 157.557 288.288 166.837 275.407 166.837Z" fill="#DB9E26"/>
<path d="M276.218 177.537C260.701 177.537 247.618 164.251 247.618 148.53C247.618 133.622 259.788 122.364 275.965 122.364V128.753C263.237 128.753 254.007 137.07 254.007 148.53C254.007 160.802 264.2 171.147 276.218 171.147V177.537Z" fill="#DB9E26"/>
<path d="M275.407 166.837C266.127 166.837 258.267 158.672 258.267 149.037C258.267 140.265 265.519 133.622 275.154 133.622V140.011C268.967 140.011 264.657 143.713 264.657 149.037C264.657 155.224 269.576 160.447 275.407 160.447V166.837Z" fill="#DB9E26"/>
<path d="M276.168 177.537V171.147C290.874 171.147 302.436 159.94 302.436 145.589C302.436 130.63 290.265 118.003 275.813 118.003V111.613C293.713 111.613 308.825 127.181 308.825 145.589C308.825 163.49 294.474 177.537 276.168 177.537Z" fill="#DB9E26"/>
<path d="M276.066 188.135C254.768 188.135 236.766 169.981 236.766 148.48C236.766 127.435 253.551 111.613 275.813 111.613V118.003C257.202 118.003 243.155 131.137 243.155 148.48C243.155 166.532 258.216 181.745 276.066 181.745V188.135Z" fill="#DB9E26"/>
<path d="M276.066 188.135V181.746C296.908 181.746 313.237 165.772 313.237 145.336C313.237 124.392 296.452 107.303 275.813 107.303V100.913C299.951 100.913 319.626 120.843 319.626 145.336C319.626 169.372 300.509 188.135 276.066 188.135Z" fill="#DB9E26"/>
<path d="M276.168 199.038C249.038 199.038 226.117 175.914 226.117 148.581C226.117 121.857 247.973 100.913 275.914 100.913V107.303C251.573 107.303 232.506 125.406 232.506 148.581C232.506 172.466 252.486 192.648 276.168 192.648V199.038Z" fill="#DB9E26"/>
<path d="M306.188 37.627H297.77V220.539H306.188V37.627Z" fill="#0A1C4F"/>
<path d="M312.73 147.972C298.835 134.534 291.635 122.161 291.533 105.477C291.432 86.2073 305.986 66.2275 305.884 49.2903C305.833 37.4748 300.306 27.4342 290.468 18.3064L318.866 0C332.761 13.4382 342.041 27.1807 342.142 43.915C342.243 63.1849 327.69 83.114 327.791 100.102C327.842 111.917 331.29 120.538 341.128 129.717L312.73 147.972Z" fill="#DB9E26"/>
<path d="M316.584 86.8667L315.113 96.8566L319.576 97.5158L313.643 108.672H318.764L318.917 125.914C318.917 125.914 360.803 129.717 360.803 91.0756" fill="#0A1C4F"/>
<path d="M338.491 68.5096C326.219 68.5096 316.28 78.4488 316.28 90.7207C316.28 91.6335 316.33 92.5463 316.432 93.4083C316.888 93.2562 317.395 93.1041 318.004 93.1041C323.075 93.1041 323.43 100.457 319.069 101.471C322.872 108.317 330.124 112.932 338.541 112.932C350.813 112.932 360.753 102.993 360.753 90.7207C360.753 78.4488 350.813 68.5096 338.491 68.5096Z" fill="#0A1C4F"/>
<path d="M333.572 62.2721C336.919 58.7731 340.367 56.4912 344.576 56.4404C349.393 56.3897 354.414 60.0409 358.673 60.0409C361.615 60.0409 364.15 58.621 366.432 56.1869L370.996 63.2863C367.649 66.7853 364.201 69.0673 359.992 69.118C355.174 69.1687 350.154 65.5176 345.894 65.5176C342.953 65.5176 340.418 66.9375 338.136 69.3715L333.572 62.2721Z" fill="#0A1C4F"/>
<path d="M359.383 140.062L328.856 140.721V108.419L359.383 99.0879V140.062Z" fill="#0A1C4F"/>
<path d="M240.215 122.11C240.215 140.619 225.204 155.63 206.695 155.63C188.186 155.63 173.176 140.619 173.176 122.11C173.176 103.601 188.186 88.5908 206.695 88.5908C225.255 88.5908 240.215 103.601 240.215 122.11Z" fill="#0A1C4F"/>
<path d="M395.185 353.095C375.256 365.722 368.207 348.379 357.304 348.43C311.006 348.683 263.136 313.744 222.365 313.998C194.018 314.15 173.277 322.365 151.32 345.996L107.303 277.841C139.606 244.474 169.271 227.232 209.332 226.979C255.63 226.725 303.552 261.665 344.323 261.411C349.951 261.36 355.377 260.853 360.702 259.788L395.185 353.095Z" fill="#0A1C4F"/>
<path d="M240.214 107.759V203.5H211.512C211.512 203.5 211.512 165.214 192.344 165.214C173.226 165.214 240.214 107.759 240.214 107.759Z" fill="#0A1C4F"/>
<path d="M211.513 165.214C211.513 165.214 163.642 165.214 192.344 232.253C221.046 299.292 115.721 299.292 115.721 299.292C115.721 299.292 77.3842 116.938 173.227 107.759C279.769 97.5158 211.513 165.214 211.513 165.214Z" fill="#0A1C4F"/>
<path d="M112.983 95.741C128.094 80.1223 141.989 72.0087 160.752 71.9072C182.456 71.8058 204.87 88.1345 223.987 88.0331C237.273 87.9317 248.531 81.745 258.825 70.6902L279.414 102.587C264.302 118.256 248.785 128.703 230.022 128.804C208.369 128.956 185.904 112.577 166.837 112.678C153.551 112.78 143.865 116.583 133.571 127.638L112.983 95.741Z" fill="#428CAB"/>
<path d="M397.467 222.314C397.467 257.608 368.867 286.208 333.572 286.208C298.278 286.208 269.677 257.608 269.677 222.314C269.677 187.019 298.278 158.419 333.572 158.419C368.867 158.419 397.467 187.019 397.467 222.314Z" fill="#FF3838"/>
<path d="M361.158 282.456C374.546 268.612 386.868 261.462 403.501 261.361C422.721 261.259 442.599 275.762 459.485 275.661C471.25 275.61 481.24 270.083 490.368 260.296L508.573 288.592C495.185 302.436 481.494 311.716 464.861 311.767C445.642 311.868 425.763 297.365 408.877 297.466C397.112 297.517 388.491 300.915 379.414 310.752L361.158 282.456Z" fill="#0A1C4F"/>
<path d="M198.531 261.462C213.744 245.742 227.689 237.628 246.553 237.527C268.358 237.425 290.874 253.855 310.093 253.754C323.43 253.652 334.789 247.415 345.134 236.31L365.823 268.358C350.61 284.079 335.093 294.576 316.229 294.677C294.424 294.829 271.908 278.348 252.689 278.45C239.352 278.551 229.565 282.405 219.22 293.511L198.531 261.462Z" fill="#DB9E26"/>
<path d="M295.996 154.261C311.564 138.135 325.915 129.818 345.235 129.717C367.598 129.565 390.722 146.451 410.398 146.35C424.09 146.249 435.702 139.859 446.301 128.449L467.498 161.36C451.93 177.486 435.956 188.237 416.635 188.338C394.272 188.49 371.199 171.604 351.523 171.705C337.832 171.806 327.842 175.762 317.243 187.121L295.996 154.261Z" fill="#DB9E26"/>
<path d="M353.349 132.404C348.075 133.672 343.46 133.773 339.505 131.289C334.941 128.398 332.405 121.958 328.399 119.473C325.61 117.698 322.416 117.496 318.764 118.459L318.714 109.027C323.988 107.759 328.602 107.658 332.558 110.143C337.122 113.033 339.657 119.423 343.663 121.958C346.452 123.733 349.647 123.936 353.298 122.972L353.349 132.404Z" fill="white"/>
<path d="M143.865 304.616L61.7651 329.211C61.7651 329.211 82.7084 347.466 151.421 345.59L143.865 304.616Z" fill="#0A1C4F"/>
<path d="M343.663 338.541L412.933 408.167C412.933 408.167 352.081 430.327 267.902 323.835L343.663 338.541Z" fill="#0A1C4F"/>
<path d="M357.609 324.343L438.593 376.32C438.593 376.32 382.558 420.033 294.677 343.004L357.609 324.343Z" fill="#0A1C4F"/>
<path d="M123.327 268.308L43.7632 300.205C43.7632 300.205 66.2785 316.483 134.484 308.47L123.327 268.308Z" fill="#0A1C4F"/>
<path d="M63.3882 254.667C75.5586 242.141 87.9826 233.723 103.044 233.622C120.437 233.52 138.49 246.654 153.804 246.553C164.454 246.502 173.531 241.482 181.797 232.608L198.328 258.216C186.208 270.742 173.784 279.16 158.673 279.261C141.279 279.362 123.277 266.229 107.912 266.33C97.2626 266.381 88.1855 271.401 79.9197 280.275L63.3882 254.667Z" fill="white"/>
<path d="M293.257 180.224C304.312 168.814 315.57 161.208 329.312 161.106C345.134 161.005 361.513 172.972 375.459 172.871C385.144 172.82 393.41 168.307 400.915 160.193L415.925 183.469C404.87 194.879 393.613 202.486 379.87 202.587C364.049 202.689 347.669 190.721 333.724 190.822C324.038 190.873 315.773 195.386 308.268 203.5L293.257 180.224Z" fill="white"/>
<path d="M109.534 260.498C102.536 254.717 96.3496 251.168 84.8891 244.981C71.7044 237.831 59.7368 227.283 59.7368 205.072V193.51H109.534V260.498Z" fill="#FF3838"/>
<path d="M100.559 210.549L95.285 205.275L89.9097 210.65C88.3884 212.273 86.3093 213.186 84.0273 213.186C79.8691 213.186 76.4208 210.093 76.0151 206.086C76.0151 205.934 76.0151 205.529 76.0151 205.072H68.51C68.51 205.884 68.5607 206.543 68.5607 206.695C69.3721 214.657 76.0658 220.64 84.078 220.64C84.4837 220.64 84.8894 220.59 85.2951 220.59C85.2444 220.995 85.2444 221.401 85.2444 221.807C85.2444 229.819 91.2282 236.462 99.2404 237.324C99.3418 237.324 100.001 237.375 100.812 237.375V229.87C100.356 229.87 99.9503 229.87 99.9503 229.87C95.8428 229.464 92.6988 225.965 92.6988 221.807C92.6988 219.575 93.6116 217.496 95.2343 215.924L100.559 210.549Z" fill="white"/>
</svg>
