<svg width="956" height="478" viewBox="0 0 956 478" fill="none" xmlns="http://www.w3.org/2000/svg">
<path d="M955 478C955 413.651 942.403 351.142 917.499 292.317C893.467 235.43 859.067 184.454 815.267 140.65C771.565 96.9427 720.497 62.5391 663.713 38.505C604.893 13.5986 542.391 1.00004 478.049 1.00003C413.706 1.00003 351.204 13.5986 292.191 38.6019C235.406 62.636 184.436 96.9427 140.636 140.747C96.9331 184.454 62.5328 235.527 38.5011 292.317C13.5973 351.142 1.00004 413.65 1.00004 478M754.413 450.308C754.413 376.461 725.633 307.072 673.5 254.837C621.27 202.601 551.888 173.915 478.049 173.915C404.209 173.915 334.827 202.698 282.597 254.837C230.367 307.072 201.587 376.461 201.587 450.308" stroke="#F4F5F6"/>
<path d="M773.303 325.238L773.303 325.238C789.971 364.611 798.435 406.438 798.5 449.5L664.513 449.5C664.384 399.858 644.976 353.231 609.917 318.103L609.916 318.103C574.674 282.857 527.856 263.5 478.033 263.5C428.209 263.5 381.391 282.922 346.149 318.103L346.149 318.103C311.025 353.231 291.616 399.858 291.487 449.5L157.5 449.5C157.565 406.438 166.029 364.611 182.697 325.238C198.844 287.08 221.958 252.765 251.322 223.397C280.752 193.964 314.999 170.914 353.153 154.765L352.958 154.304L353.154 154.765C392.805 137.965 434.799 129.5 478.033 129.5C521.266 129.5 563.261 137.965 602.782 154.7C640.936 170.848 675.248 193.964 704.613 223.332C734.043 252.765 757.156 287.015 773.303 325.238Z" stroke="#F4F5F6"/>
</svg>
